<mxfile host="app.diagrams.net" modified="2023-09-30T17:17:28.805Z" agent="Mozilla/5.0 (Windows NT 10.0; Win64; x64) AppleWebKit/537.36 (KHTML, like Gecko) Chrome/117.0.0.0 Safari/537.36 Edg/117.0.2045.43" etag="Galn8tAe6B5Rqe09GN5d" version="22.0.0" type="github">
  <diagram name="Página-1" id="ivusaEOddsh8xRNSGZ1z">
    <mxGraphModel dx="1205" dy="723" grid="1" gridSize="10" guides="1" tooltips="1" connect="1" arrows="1" fold="1" page="1" pageScale="1" pageWidth="827" pageHeight="1169" math="0" shadow="0">
      <root>
        <mxCell id="0" />
        <mxCell id="1" parent="0" />
        <mxCell id="RDXMOY2Jux-BLi5t0OtC-64" value="Usuário " style="swimlane;startSize=30;horizontal=1;childLayout=treeLayout;horizontalTree=0;resizable=0;containerType=tree;fontSize=12;swimlaneLine=1;strokeColor=default;gradientColor=none;swimlaneFillColor=none;" parent="1" vertex="1">
          <mxGeometry x="280" y="120" width="200" height="400" as="geometry" />
        </mxCell>
        <mxCell id="RDXMOY2Jux-BLi5t0OtC-76" value="" style="ellipse;html=1;shape=endState;fillColor=#000000;strokeColor=#000000;" parent="RDXMOY2Jux-BLi5t0OtC-64" vertex="1">
          <mxGeometry x="85" y="350" width="30" height="30" as="geometry" />
        </mxCell>
        <mxCell id="RDXMOY2Jux-BLi5t0OtC-80" style="edgeStyle=orthogonalEdgeStyle;rounded=0;orthogonalLoop=1;jettySize=auto;html=1;entryX=0.5;entryY=0;entryDx=0;entryDy=0;exitX=0.5;exitY=1;exitDx=0;exitDy=0;" parent="RDXMOY2Jux-BLi5t0OtC-64" source="YtolC77suIB60v1CDVW3-40" target="RDXMOY2Jux-BLi5t0OtC-76" edge="1">
          <mxGeometry relative="1" as="geometry" />
        </mxCell>
        <mxCell id="RDXMOY2Jux-BLi5t0OtC-77" value="«interface»&lt;br&gt;&lt;b&gt;Login&lt;/b&gt;" style="html=1;whiteSpace=wrap;" parent="RDXMOY2Jux-BLi5t0OtC-64" vertex="1">
          <mxGeometry x="55" y="130" width="90" height="50" as="geometry" />
        </mxCell>
        <mxCell id="RDXMOY2Jux-BLi5t0OtC-78" value="" style="ellipse;html=1;shape=startState;fillColor=#000000;strokeColor=#000000;" parent="RDXMOY2Jux-BLi5t0OtC-64" vertex="1">
          <mxGeometry x="85" y="50" width="30" height="30" as="geometry" />
        </mxCell>
        <mxCell id="RDXMOY2Jux-BLi5t0OtC-79" value="" style="edgeStyle=orthogonalEdgeStyle;html=1;verticalAlign=bottom;endArrow=open;endSize=8;strokeColor=#000000;rounded=0;entryX=0.5;entryY=0;entryDx=0;entryDy=0;" parent="RDXMOY2Jux-BLi5t0OtC-64" source="RDXMOY2Jux-BLi5t0OtC-78" edge="1" target="RDXMOY2Jux-BLi5t0OtC-77">
          <mxGeometry relative="1" as="geometry">
            <mxPoint x="-180.5" y="140" as="targetPoint" />
          </mxGeometry>
        </mxCell>
        <mxCell id="YtolC77suIB60v1CDVW3-39" value="" style="edgeStyle=orthogonalEdgeStyle;html=1;verticalAlign=bottom;endArrow=open;endSize=8;strokeColor=#000000;rounded=0;entryX=0.5;entryY=0;entryDx=0;entryDy=0;" edge="1" target="YtolC77suIB60v1CDVW3-40" source="RDXMOY2Jux-BLi5t0OtC-77" parent="RDXMOY2Jux-BLi5t0OtC-64">
          <mxGeometry relative="1" as="geometry">
            <mxPoint x="149.5" y="520" as="targetPoint" />
            <mxPoint x="158.5" y="460" as="sourcePoint" />
          </mxGeometry>
        </mxCell>
        <mxCell id="YtolC77suIB60v1CDVW3-40" value="«interface»&lt;br&gt;&lt;b&gt;Ver preço de combustível&amp;nbsp;por posto&lt;/b&gt;" style="html=1;whiteSpace=wrap;" vertex="1" parent="RDXMOY2Jux-BLi5t0OtC-64">
          <mxGeometry x="20" y="230" width="160" height="70" as="geometry" />
        </mxCell>
        <mxCell id="YtolC77suIB60v1CDVW3-90" value="Pool" style="swimlane;childLayout=stackLayout;resizeParent=1;resizeParentMax=0;horizontal=1;startSize=20;horizontalStack=0;html=1;" vertex="1" parent="1">
          <mxGeometry x="580" y="90" width="740" height="500" as="geometry">
            <mxRectangle x="620" y="360" width="70" height="30" as="alternateBounds" />
          </mxGeometry>
        </mxCell>
        <mxCell id="YtolC77suIB60v1CDVW3-91" value="Usuario" style="swimlane;startSize=20;horizontal=0;html=1;" vertex="1" parent="YtolC77suIB60v1CDVW3-90">
          <mxGeometry y="20" width="740" height="480" as="geometry">
            <mxRectangle y="20" width="480" height="30" as="alternateBounds" />
          </mxGeometry>
        </mxCell>
        <mxCell id="YtolC77suIB60v1CDVW3-125" value="" style="edgeStyle=orthogonalEdgeStyle;rounded=0;orthogonalLoop=1;jettySize=auto;html=1;" edge="1" parent="YtolC77suIB60v1CDVW3-91" source="YtolC77suIB60v1CDVW3-123" target="YtolC77suIB60v1CDVW3-124">
          <mxGeometry relative="1" as="geometry" />
        </mxCell>
        <mxCell id="YtolC77suIB60v1CDVW3-123" value="" style="ellipse;html=1;shape=startState;fillColor=#000000;strokeColor=#000000;" vertex="1" parent="YtolC77suIB60v1CDVW3-91">
          <mxGeometry x="60" y="215" width="30" height="30" as="geometry" />
        </mxCell>
        <mxCell id="YtolC77suIB60v1CDVW3-127" value="" style="edgeStyle=orthogonalEdgeStyle;rounded=0;orthogonalLoop=1;jettySize=auto;html=1;" edge="1" parent="YtolC77suIB60v1CDVW3-91" source="YtolC77suIB60v1CDVW3-124" target="YtolC77suIB60v1CDVW3-126">
          <mxGeometry relative="1" as="geometry" />
        </mxCell>
        <mxCell id="YtolC77suIB60v1CDVW3-124" value="«interface»&lt;br style=&quot;border-color: var(--border-color);&quot;&gt;&lt;b style=&quot;border-color: var(--border-color);&quot;&gt;Login&lt;/b&gt;" style="whiteSpace=wrap;html=1;fillColor=none;strokeColor=#000000;" vertex="1" parent="YtolC77suIB60v1CDVW3-91">
          <mxGeometry x="127" y="200" width="120" height="60" as="geometry" />
        </mxCell>
        <mxCell id="YtolC77suIB60v1CDVW3-131" value="" style="edgeStyle=orthogonalEdgeStyle;rounded=0;orthogonalLoop=1;jettySize=auto;html=1;" edge="1" parent="YtolC77suIB60v1CDVW3-91" source="YtolC77suIB60v1CDVW3-126" target="YtolC77suIB60v1CDVW3-130">
          <mxGeometry relative="1" as="geometry" />
        </mxCell>
        <mxCell id="YtolC77suIB60v1CDVW3-133" value="" style="edgeStyle=orthogonalEdgeStyle;rounded=0;orthogonalLoop=1;jettySize=auto;html=1;" edge="1" parent="YtolC77suIB60v1CDVW3-91" source="YtolC77suIB60v1CDVW3-126" target="YtolC77suIB60v1CDVW3-132">
          <mxGeometry relative="1" as="geometry" />
        </mxCell>
        <mxCell id="YtolC77suIB60v1CDVW3-126" value="sign in &lt;br&gt;or&lt;br&gt;&amp;nbsp;sign up" style="rhombus;whiteSpace=wrap;html=1;fillColor=none;strokeColor=#000000;" vertex="1" parent="YtolC77suIB60v1CDVW3-91">
          <mxGeometry x="310" y="180" width="120" height="100" as="geometry" />
        </mxCell>
        <mxCell id="YtolC77suIB60v1CDVW3-136" style="edgeStyle=orthogonalEdgeStyle;rounded=0;orthogonalLoop=1;jettySize=auto;html=1;entryX=0.5;entryY=0;entryDx=0;entryDy=0;" edge="1" parent="YtolC77suIB60v1CDVW3-91" source="YtolC77suIB60v1CDVW3-130" target="YtolC77suIB60v1CDVW3-134">
          <mxGeometry relative="1" as="geometry" />
        </mxCell>
        <mxCell id="YtolC77suIB60v1CDVW3-130" value="«interface»&lt;br style=&quot;border-color: var(--border-color);&quot;&gt;&lt;b style=&quot;border-color: var(--border-color);&quot;&gt;Login&lt;br&gt;&lt;br&gt;Inserir user and key&lt;br&gt;&lt;/b&gt;" style="whiteSpace=wrap;html=1;fillColor=none;strokeColor=#000000;" vertex="1" parent="YtolC77suIB60v1CDVW3-91">
          <mxGeometry x="300" y="60" width="140" height="80" as="geometry" />
        </mxCell>
        <mxCell id="YtolC77suIB60v1CDVW3-135" value="" style="edgeStyle=orthogonalEdgeStyle;rounded=0;orthogonalLoop=1;jettySize=auto;html=1;" edge="1" parent="YtolC77suIB60v1CDVW3-91" source="YtolC77suIB60v1CDVW3-132" target="YtolC77suIB60v1CDVW3-134">
          <mxGeometry relative="1" as="geometry" />
        </mxCell>
        <mxCell id="YtolC77suIB60v1CDVW3-132" value="«interface»&lt;br&gt;Sign up&lt;br&gt;&lt;br&gt;Inserir Name, user and key" style="whiteSpace=wrap;html=1;fillColor=none;strokeColor=#000000;" vertex="1" parent="YtolC77suIB60v1CDVW3-91">
          <mxGeometry x="295" y="340" width="150" height="80" as="geometry" />
        </mxCell>
        <mxCell id="YtolC77suIB60v1CDVW3-134" value="«interface»&lt;br style=&quot;border-color: var(--border-color);&quot;&gt;&lt;b style=&quot;border-color: var(--border-color);&quot;&gt;CostFuel&lt;br&gt;&lt;br&gt;Ver preco do combustivel&lt;br&gt;&lt;/b&gt;" style="whiteSpace=wrap;html=1;fillColor=none;strokeColor=#000000;" vertex="1" parent="YtolC77suIB60v1CDVW3-91">
          <mxGeometry x="521" y="185" width="140" height="90" as="geometry" />
        </mxCell>
      </root>
    </mxGraphModel>
  </diagram>
</mxfile>
